<svg width="158" height="68" viewBox="0 0 158 68" fill="none" xmlns="http://www.w3.org/2000/svg">
<path d="M70.4565 63.7883C70.3872 63.7883 70.3233 63.7465 70.296 63.6792L47.2269 3.74351C47.1923 3.6562 47.2379 3.55617 47.3254 3.52161C47.413 3.48887 47.5133 3.53252 47.5461 3.61983L70.617 63.5555C70.6516 63.6428 70.606 63.7429 70.5185 63.7756C70.4984 63.7847 70.4765 63.7883 70.4565 63.7883Z" fill="black"/>
<path d="M89.6226 57.1622L85.4279 46.2784L85.4042 46.2202H84.6765L80.4344 57.204L75.4245 44.2686H74.3612L79.9766 58.841L79.9985 58.8992H80.7755L85.0413 47.8353L89.298 58.8992H90.0494L95.6867 44.2686H94.6071L89.6226 57.1622Z" fill="black"/>
<path d="M99.3288 58.8992H107.215V57.9716H100.332V51.6748H106.008V50.7472H100.332V45.1962H107.215V44.2686H99.3288V58.8992Z" fill="black"/>
<path d="M133.813 44.2686H132.6L125.389 51.9822V44.2686H124.388V58.8992H125.389V53.3045L126.965 51.5984L133.393 58.8683L133.421 58.8992H134.699L127.643 50.8873L133.813 44.2686Z" fill="black"/>
<path d="M111.979 58.8992H119.865V57.9716H112.982V51.6748H118.657V50.7472H112.982V45.1962H119.865V44.2686H111.979V58.8992Z" fill="black"/>
<path d="M79.8562 40.7983H80.9086L75.2713 26.1641H74.4469L68.8132 40.7983H69.8637L71.5234 36.4841H78.1875L79.8562 40.7983ZM77.8337 35.5583H71.879L74.8573 27.8192L77.8337 35.5583Z" fill="black"/>
<path d="M97.1038 27.1009H102.272V40.8058H103.274V27.1009H108.442V26.1733H97.1038V27.1009Z" fill="black"/>
<path d="M118.336 20.3349C119.505 19.08 120.124 17.2975 120.124 15.1822C120.124 10.586 117.282 7.84326 112.522 7.84326H108.448V22.4739H112.522C115.059 22.4739 117.014 21.7536 118.336 20.3349ZM119.121 15.1822C119.121 17.5503 118.267 21.5226 112.546 21.5226H109.449V8.79451H112.546C118.267 8.79451 119.121 12.7959 119.121 15.1822Z" fill="black"/>
<path d="M93.5383 9.8567L102.435 22.4739H103.175V7.84326H102.198V20.4604L93.3031 7.84326H92.5608V22.4739H93.5383V9.8567Z" fill="black"/>
<path d="M130.827 7.50488C126.563 7.50488 123.468 10.7242 123.468 15.1585C123.468 19.5928 126.563 22.8103 130.827 22.8103C135.091 22.8103 138.188 19.5928 138.188 15.1585C138.188 10.7242 135.093 7.50488 130.827 7.50488ZM137.187 15.1585C137.187 19.1035 134.572 21.8609 130.829 21.8609C127.087 21.8609 124.472 19.1053 124.472 15.1585C124.472 11.2135 127.085 8.45613 130.829 8.45613C134.572 8.45613 137.187 11.2135 137.187 15.1585Z" fill="black"/>
<path d="M151.879 7.84326V20.4604L142.985 7.84326H142.242V22.4739H143.22V9.8567L152.116 22.4739H152.857V7.84326H151.879Z" fill="black"/>
<path d="M71.7568 21.5463H64.8739V7.84326H63.8708V22.4739H71.7568V21.5463Z" fill="black"/>
<path d="M80.8666 22.8103C85.1307 22.8103 88.2274 19.5928 88.2274 15.1585C88.2274 10.7242 85.1325 7.50488 80.8666 7.50488C76.6026 7.50488 73.5077 10.7242 73.5077 15.1585C73.5077 19.5928 76.6026 22.8103 80.8666 22.8103ZM74.5089 15.1585C74.5089 11.2135 77.1224 8.45613 80.8666 8.45613C84.6091 8.45613 87.2244 11.2116 87.2244 15.1585C87.2244 19.1035 84.6109 21.8609 80.8666 21.8609C77.1242 21.8609 74.5089 19.1035 74.5089 15.1585Z" fill="black"/>
<path d="M85.2382 40.8038H86.2413V34.6107H89.3655L93.666 40.8038H94.8533L90.4415 34.5416C92.9693 34.1687 93.8757 32.1698 93.8757 30.4001C93.8757 28.4467 92.745 26.1641 89.557 26.1641H85.2382V40.8038ZM89.557 27.0917C92.6337 27.0917 92.8726 29.6235 92.8726 30.4001C92.8726 31.3877 92.5498 33.6831 89.557 33.6831H86.2395V27.0917H89.557Z" fill="black"/>
<path d="M9.61864 32.0717C9.61864 32.0717 9.62047 32.0717 9.61864 32.0717C9.62047 32.0717 9.62047 32.0717 9.61864 32.0717H24.4387C25.0223 32.0717 25.4929 31.6006 25.4929 31.0186C25.4929 30.4384 25.0205 29.9673 24.4387 29.9673H10.6746V8.57068C10.6746 7.99047 10.2023 7.51758 9.62047 7.51758C9.03868 7.51758 8.56632 7.98865 8.56632 8.57068V31.0186C8.5645 31.6006 9.03686 32.0717 9.61864 32.0717Z" fill="black"/>
<path d="M19.4033 58.4263C19.4051 58.4227 19.4069 58.4209 19.4069 58.4191L37.4642 11.5061L41.8759 22.9665H35.2775C34.6957 22.9665 34.2233 23.4376 34.2233 24.0196C34.2233 24.6017 34.6957 25.0727 35.2775 25.0727H42.6875L45.1223 31.3986C45.2828 31.8169 45.684 32.0734 46.1071 32.0734C46.233 32.0734 46.3606 32.0516 46.4847 32.0025C47.0281 31.7951 47.2999 31.1858 47.092 30.6438L38.4491 8.19223C38.4454 8.18313 38.4418 8.17586 38.4381 8.16676C38.4308 8.15039 38.4235 8.13403 38.4162 8.11766C38.4089 8.10129 38.3998 8.08674 38.3925 8.07037C38.3852 8.05582 38.3779 8.04308 38.3688 8.02853C38.3597 8.01216 38.3487 7.99579 38.3378 7.98124C38.3287 7.96851 38.3214 7.9576 38.3123 7.94487C38.3013 7.9285 38.2886 7.91395 38.2776 7.8994C38.2685 7.88848 38.2576 7.87757 38.2484 7.86484C38.2357 7.85029 38.2229 7.83756 38.2101 7.82301C38.1992 7.81209 38.1883 7.80118 38.1755 7.79027C38.1627 7.77754 38.1481 7.76662 38.1354 7.75389C38.1226 7.74298 38.1098 7.73388 38.0971 7.72297C38.0825 7.71206 38.0679 7.70115 38.0533 7.69205C38.0405 7.68296 38.0259 7.67386 38.0132 7.66659C37.9968 7.65749 37.9803 7.64658 37.9639 7.63749C37.9512 7.63021 37.9384 7.62475 37.9238 7.61748C37.9056 7.60839 37.8855 7.59929 37.8654 7.59202C37.8581 7.58838 37.8527 7.58656 37.8454 7.58292C37.8399 7.5811 37.8344 7.57928 37.8271 7.57747C37.8071 7.57019 37.787 7.56291 37.767 7.55746C37.7542 7.55382 37.7396 7.55018 37.7268 7.54655C37.7086 7.54109 37.6885 7.53745 37.6703 7.53381C37.6557 7.53018 37.6393 7.52836 37.6247 7.52472C37.6065 7.5229 37.5882 7.52108 37.57 7.51926C37.5536 7.51744 37.5372 7.51562 37.5207 7.51562C37.5043 7.51562 37.4861 7.51562 37.4697 7.51562C37.4533 7.51562 37.435 7.51562 37.4186 7.51562C37.4022 7.51562 37.3858 7.51744 37.3694 7.51926C37.3511 7.52108 37.3329 7.5229 37.3147 7.52472C37.3001 7.52654 37.2837 7.53018 37.2691 7.53381C37.249 7.53745 37.2308 7.54109 37.2107 7.54655C37.1979 7.55018 37.1833 7.55382 37.1706 7.55746C37.1505 7.56291 37.1286 7.57019 37.1086 7.57747C37.1031 7.57928 37.0976 7.5811 37.0903 7.58292C37.083 7.58474 37.0776 7.58838 37.0703 7.59202C37.0502 7.59929 37.032 7.60839 37.0119 7.61748C36.9991 7.62475 36.9864 7.63021 36.9736 7.63749C36.9572 7.64658 36.939 7.65567 36.9225 7.66659C36.9098 7.67386 36.8952 7.68296 36.8824 7.69205C36.8678 7.70115 36.8532 7.71206 36.8386 7.72297C36.8259 7.73206 36.8131 7.74298 36.8004 7.75207C36.7858 7.76298 36.773 7.77572 36.7584 7.78845C36.7475 7.79936 36.7365 7.80846 36.7256 7.81937C36.711 7.8321 36.6982 7.84665 36.6854 7.8612C36.6763 7.87211 36.6654 7.88303 36.6563 7.89394C36.6435 7.90849 36.6326 7.92486 36.6198 7.94123C36.6107 7.95214 36.6034 7.96487 36.5943 7.97761C36.5833 7.99398 36.5742 8.01035 36.5633 8.02671C36.556 8.03945 36.5468 8.054 36.5395 8.06855C36.5304 8.08492 36.5231 8.09947 36.5158 8.11584C36.5085 8.13221 36.5013 8.14858 36.494 8.16495C36.4903 8.17404 36.4867 8.18131 36.483 8.19041L18.4257 55.1033L10.6035 34.7962C10.3956 34.2542 9.78462 33.9813 9.24113 34.1905C8.69764 34.3997 8.4259 35.0071 8.63381 35.5492L17.4372 58.4191C17.4409 58.4263 17.4445 58.4318 17.4463 58.4391C17.4628 58.4791 17.481 58.5209 17.5029 58.5591C17.5102 58.5718 17.5175 58.5828 17.5248 58.5937C17.5412 58.6209 17.5594 58.6482 17.5795 58.6737C17.5904 58.6882 17.6014 58.7028 17.6123 58.7155C17.6378 58.7464 17.6652 58.7755 17.6944 58.8028C17.7071 58.8156 17.7217 58.8265 17.7363 58.8392C17.7564 58.8574 17.7783 58.8738 17.802 58.8901C17.8166 58.901 17.833 58.912 17.8476 58.9229C17.8804 58.9447 17.9132 58.9629 17.9497 58.9811C17.9698 58.9902 17.9898 58.9993 18.0099 59.0084C18.0208 59.0138 18.0318 59.0193 18.0445 59.0229C18.05 59.0247 18.0555 59.0247 18.061 59.0284C18.112 59.0466 18.1649 59.0611 18.2196 59.072C18.2269 59.0738 18.2324 59.0757 18.2397 59.0775C18.2999 59.0884 18.3619 59.0957 18.4239 59.0957C18.4512 59.0957 18.4804 59.0902 18.5078 59.0884C18.5351 59.0866 18.5625 59.0847 18.588 59.0811C18.6172 59.0757 18.6464 59.0684 18.6756 59.0611C18.7048 59.0538 18.7339 59.0466 18.7613 59.0375C18.7741 59.0338 18.7886 59.032 18.8014 59.0265C18.982 58.9574 19.1297 58.8447 19.2428 58.7046C19.2446 58.701 19.2464 58.6992 19.2501 58.6955C19.3121 58.6137 19.365 58.5227 19.4033 58.4263Z" fill="black"/>
<path d="M46.4828 34.1903C45.9393 33.9811 45.3284 34.2521 45.1205 34.7959L37.3019 55.1067L30.7253 38.0207C30.5156 37.4787 29.9064 37.2059 29.363 37.415C28.8195 37.6242 28.5477 38.2317 28.7556 38.7737L36.3171 58.4188C36.3189 58.4261 36.3243 58.4316 36.3262 58.4388C36.3426 58.4807 36.3626 58.5225 36.3845 58.5607C36.39 58.5698 36.3955 58.5789 36.4009 58.588C36.4192 58.6189 36.4411 58.6498 36.463 58.6789C36.4721 58.6898 36.4794 58.7026 36.4885 58.7135C36.5158 58.7462 36.545 58.7789 36.5779 58.808C36.587 58.8171 36.5961 58.8244 36.6052 58.8317C36.6326 58.8553 36.6599 58.8772 36.6909 58.899C36.7 58.9063 36.711 58.9135 36.7201 58.9208C36.7566 58.9445 36.7949 58.9663 36.835 58.9863C36.846 58.9918 36.8587 58.9972 36.8697 59.0027C36.8879 59.0099 36.9043 59.019 36.9225 59.0263C36.9317 59.0299 36.939 59.0299 36.9481 59.0336C36.99 59.0481 37.0338 59.0609 37.0776 59.07C37.094 59.0736 37.1086 59.0772 37.1232 59.0809C37.1815 59.09 37.2399 59.0972 37.3001 59.0972C37.3037 59.0972 37.3092 59.0954 37.3128 59.0954C37.3676 59.0954 37.4204 59.09 37.4752 59.0809C37.4934 59.0772 37.5135 59.0718 37.5317 59.0681C37.5718 59.059 37.6119 59.0481 37.6521 59.0354C37.6612 59.0318 37.6703 59.0318 37.6812 59.0281C37.7013 59.0208 37.7214 59.0118 37.7396 59.0027C37.7487 58.999 37.756 58.9954 37.7651 58.9918C37.8071 58.9717 37.8472 58.9481 37.8855 58.9226C37.8928 58.9172 37.9001 58.9117 37.9074 58.9063C37.9402 58.8826 37.9712 58.859 38.0022 58.8317C38.0095 58.8262 38.0168 58.819 38.0241 58.8135C38.0569 58.7826 38.0879 58.7498 38.1171 58.7153C38.1244 58.7062 38.1317 58.6953 38.139 58.6862C38.1627 58.6553 38.1864 58.6225 38.2065 58.588C38.2101 58.5807 38.2156 58.5734 38.2193 58.5661C38.243 58.5261 38.2612 58.4843 38.2794 58.4406C38.2813 58.4352 38.2849 58.4297 38.2886 58.4225L47.092 35.5526C47.2981 35.0069 47.0263 34.3976 46.4828 34.1903Z" fill="black"/>
</svg>
